<?xml version="1.0" encoding="UTF-8"?>
<svg id="Layer_2" data-name="Layer 2" xmlns="http://www.w3.org/2000/svg" viewBox="0 0 252.12 260.26">
  <defs>
    <style>
      .cls-1 {
        fill: #fefefe;
      }

      .cls-2 {
        fill: #fe5757;
      }
    </style>
  </defs>
  <g id="Layer_1-2" data-name="Layer 1">
    <g>
      <path class="cls-1" d="M.11,130.13C.11,88.88,.19,47.62,0,6.37-.02,1.62,.67-.01,6.07,0,85.86,.22,165.66,.17,245.46,.11c4.15,0,6.69-.29,6.66,5.75-.28,82.84-.28,165.69,0,248.53,.02,5.99-2.44,5.78-6.64,5.77-79.8-.07-159.59-.12-239.39,.1-5.35,.01-6.12-1.54-6.09-6.35,.21-34.49,.11-68.98,.11-103.47,4.91-.04,4.38,4.42,5.65,7.15,6.4,13.7,15.74,24.3,30.14,29.91,4.97,1.94,9.16,2.46,11.38-3.87,1.94-5.54,1.7-9.17-4.9-11.79-14.12-5.6-22.2-16.2-22.48-31.83-.24-13.7,5.52-24.21,17.59-30.86,12.51-6.89,28.51-5.27,39.77,4.37,6.01,5.14,12.6,9.07,19.74,12.2,18.01,7.89,40.54,3.38,55.45-11.01,13.7-13.22,18.26-36.5,10.88-55.59-7.47-19.35-24.83-31.64-45.11-31.93-23.41-.34-42,10.75-49.72,29.85-1.89,4.68-4.2,9.67,2.06,13.29,6.34,3.66,10.14,2.56,13.04-4.84,8.22-20.96,26.99-24.29,44.27-19.87,13.03,3.33,23.82,21.32,22.55,35.17-1.46,15.86-14.61,29.67-29.66,31.5-11.56,1.41-21.14-2.52-29.91-9.71-10.96-8.99-22.97-15.03-37.86-14.59-20.61,.61-39.33,13.53-46.76,33.01-1.29,3.39-.57,8.47-6.11,9.14Z"/>
      <path class="cls-2" d="M.11,130.13c4.11-13.02,9.62-25.13,20.88-33.78,20.22-15.53,48.33-15.01,68.47,1.62,7.93,6.55,15.72,12.65,26.91,12.26,16.29-.56,29.46-12.31,31.54-28.78,1.88-14.9-9.58-31.45-23.88-34.51-17.26-3.69-34.23,4.06-38.13,20.13-3.49,14.4-11.44,6.96-17.86,5.54-9.34-2.07-4.82-8.78-3.09-13.66,8.05-22.69,28.99-35.76,54.96-34.7,22.03,.89,41.59,16.74,47.95,38.84,6.43,22.35-2.41,46.92-21.53,59.85-20.06,13.56-45.88,12.62-65.07-3.02-8.28-6.75-16.18-13.01-27.78-12.53-15.74,.66-28.69,11.55-30.94,26.87-2.38,16.18,7.15,32.79,22.82,35.85,12.46,2.44,4.82,9.04,4.43,13.96-.53,6.74-3.26,10.17-11.28,7.39-17.91-6.22-29.71-18.1-36.1-35.69-.67-1.83-.19-4.13-2.3-5.33v-20.31Z"/>
      <path class="cls-2" d="M178.41,193.4c-16.17,.58-29.24-6.1-41.24-16.44-18.66-16.07-45.13-8.49-52.19,14.49-5.11,16.64,4.17,34.85,20.33,39.9,17.19,5.37,36.6-3.32,40.59-20.36,3.43-14.67,11.52-5.55,17.34-4.82,8.73,1.09,5.36,7.42,3.64,12.37-7.53,21.65-30.12,37.67-51.9,36.94-22.73-.77-44.77-16.79-51.02-37.09-7.27-23.62,.62-48.78,19.29-61.52,21.25-14.5,45.42-14.26,65.12,.67,3.5,2.65,6.84,5.53,10.47,8,11.13,7.58,22.89,8.12,34.42,1.44,11.96-6.93,17.43-17.94,15.76-31.61-1.68-13.73-9.96-23.51-23.07-26.73-13.92-3.42-3.4-10.67-3.55-15.93-.21-7.85,4.94-6.94,10.48-5.3,24.44,7.24,41.58,33.06,38.12,57.78-3.95,28.2-25.32,47.79-52.58,48.21Z"/>
    </g>
  </g>
</svg>